<svg width="1440" height="963" viewBox="0 0 1440 963" fill="none" xmlns="http://www.w3.org/2000/svg" xmlns:xlink="http://www.w3.org/1999/xlink">
<g clip-path="url(#clip0_4174_23185)">
<rect width="1440" height="963" fill="url(#pattern0)"/>
<path d="M-412 0H1852V899C1852 934.346 1823.35 963 1788 963H-348C-383.346 963 -412 934.346 -412 899V0Z" fill="#0069FF"/>
<mask id="mask0_4174_23185" style="mask-type:alpha" maskUnits="userSpaceOnUse" x="-372" y="0" width="2184" height="963">
<path d="M-371.905 0H1811.91V899C1811.91 934.346 1783.25 963 1747.91 963H-307.905C-343.252 963 -371.905 934.346 -371.905 899V0Z" fill="#0069FF"/>
</mask>
<g mask="url(#mask0_4174_23185)">
<path fill-rule="evenodd" clip-rule="evenodd" d="M264.036 -224.647C309.653 -178.308 334.797 -216.718 347.624 -274.052C380.74 -286.056 412.329 -307.886 438.653 -332.904C607.434 -240.543 762.287 -63.0718 816.628 90.4608C870.158 241.701 957.66 255.544 1063.88 272.349C1110.26 279.687 1160.21 287.589 1212.46 307.742C1252.89 323.339 1311.79 363.262 1387.14 414.342C1552.69 526.562 1797.68 692.629 2100.87 772.886C2123.19 879.951 2073.23 972.163 1766.58 818.426C1510.25 689.919 1504.03 821.926 1498.01 949.825C1492.6 1064.58 1487.35 1176.02 1301.76 1093.05C909.327 917.588 1111.77 1306.03 1301.76 1581.46L2234.79 1674.29L2394.26 818.426C2453.05 821.016 2513.41 819.693 2575.25 813.71C3123.53 760.665 2710.96 297.881 2436.14 73.1192C2376.58 158.858 2145.26 325.816 1696.5 307.742C1198.76 287.695 1458.11 231.951 1552.71 211.619C1564.72 209.037 1574.07 207.026 1578.88 205.732C1643.35 188.39 1742.87 73.1191 1611.68 40.476C1480.49 7.83282 1234.28 -258.413 1099.36 -486.915C1099.36 -74.1782 1358.61 13.1343 1434.77 38.7855L1434.82 38.8008C1436.57 39.3907 1438.23 39.9481 1439.78 40.476C1508.77 63.9382 1622.99 142.486 1337.99 142.486C1053 142.486 1011.15 -38.0717 1069.96 -183.946C1128.77 -329.82 1150.26 -586.885 633.416 -613.407C244.96 -633.341 195.436 -495.767 221.501 -411.655C193.643 -405.302 174.458 -393.824 170.653 -375.288C134.303 -363.436 162.283 -324.541 264.036 -224.647ZM-1162.08 -82.853C-970.577 -38.9888 -546.398 3.85535 -381.732 -175.682C-175.901 -400.104 165.644 -218.526 264.036 42.619C362.429 303.764 230.108 309.885 153.204 224.196C86.8774 150.294 26.4395 147.717 -3.44189 146.443C-8.20728 146.24 -12.1954 146.07 -15.3065 145.649C-18.7352 145.185 -24.7888 145.283 -33.0929 145.419C-79.5693 146.176 -196.542 148.083 -318.399 58.9406C-462.029 -46.1296 -579.647 41.5988 -381.732 115.046C-374.005 117.914 -366.34 120.736 -358.762 123.526L-358.76 123.527C-172.254 192.203 -38.76 241.359 -337.625 462.899C-648.635 693.441 -336.495 694.462 -226.793 670.999C-183.26 661.689 -180.867 638.885 -177.987 611.448C-173.61 569.745 -168.109 517.337 -15.3065 485.341C238.025 432.296 975.4 377.211 1212.9 604.693C1450.4 832.175 1183.49 1147.39 864.567 988.25C767.671 939.901 668.374 861.044 577.491 788.87C369.24 623.487 205.17 493.191 215.406 845.436C227.168 1250.21 601.812 1353.45 787.663 1354.47L1154.09 1701.3C797.088 1694.5 45.0858 1684.98 -106.913 1701.3C-157.513 1706.73 -176.91 1656.17 -206.931 1577.91C-289.638 1362.31 -452.975 936.518 -1571.48 892.361C-1448.21 876.719 -1170.9 834.215 -1047.86 789.331C-894.05 733.225 -560.421 597.552 -1065.95 541.447C-1470.38 496.562 -1298.55 106.545 -1162.08 -82.853ZM-1129.61 300.705C-916.99 238.479 -290.447 70.1624 -514.374 343.549C-659.246 520.42 -931.692 439.438 -1129.61 300.705Z" fill="url(#paint0_linear_4174_23185)"/>
</g>
<path d="M-412 0H1852V899C1852 934.346 1823.35 963 1788 963H-348C-383.346 963 -412 934.346 -412 899V0Z" fill="url(#paint1_linear_4174_23185)"/>
</g>
<defs>
<pattern id="pattern0" patternContentUnits="objectBoundingBox" width="1" height="1">
<use xlink:href="#image0_4174_23185" transform="matrix(0.000473619 0 0 0.000708215 -0.182011 0)"/>
</pattern>
<linearGradient id="paint0_linear_4174_23185" x1="-351.432" y1="4.88304" x2="921.895" y2="2047.78" gradientUnits="userSpaceOnUse">
<stop stop-color="#6414EE"/>
<stop offset="1" stop-color="#0069FF" stop-opacity="0"/>
</linearGradient>
<linearGradient id="paint1_linear_4174_23185" x1="898" y1="963" x2="898" y2="0" gradientUnits="userSpaceOnUse">
<stop offset="0.122862" stop-color="#0069FF"/>
<stop offset="1" stop-color="#0069FF" stop-opacity="0"/>
</linearGradient>
<clipPath id="clip0_4174_23185">
<rect width="1440" height="963" fill="white"/>
</clipPath>
</defs>
</svg>
